<svg width="436" height="180" viewBox="0 0 436 180" fill="none" xmlns="http://www.w3.org/2000/svg" role="img" aria-label="muxpad">
  <title>muxpad</title>
  <!-- card -->
  <rect x="1" y="1" width="434" height="178" rx="26" fill="#f5f3ee" stroke="#d9d5ca" stroke-width="2"/>

  <!-- icon: a tmux window split into panes, focused pane in brand green -->
  <g>
    <rect x="40" y="38" width="104" height="104" rx="22" fill="#20231f"/>
    <!-- left tall pane -->
    <rect x="58" y="56" width="30" height="68" rx="6" fill="#f5f3ee"/>
    <!-- right top pane (focused / launched) -->
    <rect x="95" y="56" width="31" height="30" rx="6" fill="#169063"/>
    <!-- right bottom pane -->
    <rect x="95" y="93" width="31" height="31" rx="6" fill="#f5f3ee" fill-opacity="0.34"/>
  </g>

  <!-- wordmark: Inter Bold (weight 700), outlined to paths for consistent rendering -->
  <g>
    <path transform="translate(178.000 110.000) scale(0.028320 -0.028320)" fill="#20231f" d="M128 0V1118H406L418 901Q463 1023 550.0 1079.0Q637 1135 737 1135Q949 1135 1025 884Q1072 1013 1170.5 1074.0Q1269 1135 1384 1135Q1538 1135 1639.5 1035.5Q1741 936 1741 754V0H1440V697Q1440 791 1389.0 837.5Q1338 884 1263 884Q1178 884 1128.5 830.0Q1079 776 1079 688V0H789V705Q789 787 740.5 835.5Q692 884 615 884Q536 884 482.0 830.5Q428 777 428 676V0Z"/>
    <path transform="translate(228.531 110.000) scale(0.028320 -0.028320)" fill="#20231f" d="M513 -14Q339 -14 233.5 98.0Q128 210 128 407V1118H428V459Q428 355 482.0 296.0Q536 237 630 237Q726 237 786.5 298.5Q847 360 847 471V1118H1148V0H864L860 232Q813 113 726.5 49.5Q640 -14 513 -14Z"/>
    <path transform="translate(262.239 110.000) scale(0.028320 -0.028320)" fill="#20231f" d="M42 0 402 574 64 1118H388L489 942Q519 886 545.5 831.5Q572 777 597 724Q622 777 648.5 832.0Q675 887 707 942L812 1118H1130L785 570L1146 0H824L700 211Q669 265 642.0 319.0Q615 373 590 425Q566 373 540.5 319.0Q515 265 484 211L360 0Z"/>
    <path transform="translate(293.484 110.000) scale(0.028320 -0.028320)" fill="#146b4a" d="M128 -418V1118H423V930H437Q457 974 495.5 1021.0Q534 1068 597.5 1100.0Q661 1132 756 1132Q880 1132 983.0 1068.0Q1086 1004 1147.5 876.0Q1209 748 1209 557Q1209 371 1149.0 242.5Q1089 114 986.0 47.5Q883 -19 754 -19Q663 -19 600.0 12.0Q537 43 497.5 88.5Q458 134 437 179H428V-418ZM662 222Q779 222 840.5 316.0Q902 410 902 558Q902 705 841.0 798.5Q780 892 662 892Q546 892 483.5 801.0Q421 710 421 558Q421 406 484.0 314.0Q547 222 662 222Z"/>
    <path transform="translate(327.645 110.000) scale(0.028320 -0.028320)" fill="#146b4a" d="M440 -22Q280 -22 174.0 62.5Q68 147 68 313Q68 438 128.0 509.0Q188 580 284.0 613.0Q380 646 490 656Q634 670 697.5 685.5Q761 701 761 756V761Q761 832 715.5 871.0Q670 910 586 910Q499 910 446.0 872.5Q393 835 375 781L100 827Q143 972 271.5 1052.0Q400 1132 587 1132Q707 1132 815.5 1094.0Q924 1056 992.5 972.5Q1061 889 1061 753V0H777V155H767Q726 77 645.0 27.5Q564 -22 440 -22ZM525 189Q630 189 696.5 250.0Q763 311 763 400V521Q745 508 704.5 498.5Q664 489 619.0 481.5Q574 474 541 470Q458 458 407.0 423.0Q356 388 356 321Q356 256 403.5 222.5Q451 189 525 189Z"/>
    <path transform="translate(358.918 110.000) scale(0.028320 -0.028320)" fill="#146b4a" d="M537 -19Q408 -19 305.0 47.5Q202 114 141.5 242.5Q81 371 81 557Q81 748 143.0 876.0Q205 1004 308.0 1068.0Q411 1132 535 1132Q630 1132 693.0 1100.0Q756 1068 794.5 1021.0Q833 974 853 930H863V1490H1163V0H868V179H853Q832 134 793.0 88.5Q754 43 691.0 12.0Q628 -19 537 -19ZM629 222Q743 222 806.0 314.0Q869 406 869 558Q869 710 806.5 801.0Q744 892 629 892Q511 892 450.0 798.5Q389 705 389 558Q389 410 450.5 316.0Q512 222 629 222Z"/>
  </g>
</svg>
